<svg width="435" height="333" viewBox="0 0 435 333" fill="none" xmlns="http://www.w3.org/2000/svg">
<g opacity="0.3">
<path d="M162.631 226.771C132.266 209.268 132.266 180.544 162.631 163.041C192.997 145.538 242.711 145.538 273.076 163.041C303.441 180.544 303.441 209.268 273.076 226.771C242.711 244.274 192.997 244.344 162.631 226.771Z" stroke="#BD8ACE" stroke-miterlimit="10" stroke-linecap="round" stroke-linejoin="round"/>
</g>
<g opacity="0.3">
<path d="M146.813 235.875C107.762 213.362 107.762 176.451 146.813 153.937C185.864 131.423 249.772 131.423 288.823 153.937C327.875 176.451 327.875 213.362 288.823 235.875C249.772 258.389 185.864 258.46 146.813 235.875Z" stroke="#BD8ACE" stroke-miterlimit="10" stroke-linecap="round" stroke-linejoin="round"/>
</g>
<g opacity="0.3">
<path d="M131.065 244.98C83.3283 217.455 83.3283 172.357 131.065 144.833C178.802 117.308 256.905 117.308 304.642 144.833C352.379 172.357 352.379 217.455 304.642 244.98C256.905 272.504 178.802 272.575 131.065 244.98Z" stroke="#BD8ACE" stroke-miterlimit="10" stroke-linecap="round" stroke-linejoin="round"/>
</g>
<g opacity="0.2">
<path d="M115.247 254.084C58.824 221.549 58.824 168.264 115.247 135.729C171.67 103.193 263.966 103.193 320.389 135.729C376.812 168.264 376.812 221.549 320.389 254.084C263.966 286.62 171.67 286.69 115.247 254.084Z" stroke="#BD8ACE" stroke-miterlimit="10" stroke-linecap="round" stroke-linejoin="round"/>
</g>
<g opacity="0.2">
<path d="M99.4996 263.189C34.3908 225.642 34.3908 164.171 99.4996 126.625C164.608 89.0783 271.099 89.0783 336.207 126.625C401.316 164.171 401.316 225.642 336.207 263.189C271.099 300.735 164.538 300.805 99.4996 263.189Z" stroke="#BD8ACE" stroke-miterlimit="10" stroke-linecap="round" stroke-linejoin="round"/>
</g>
<g opacity="0.1">
<path d="M83.6819 272.292C9.88728 229.735 9.88728 160.077 83.6819 117.449C157.477 74.8215 278.161 74.8921 351.955 117.449C425.75 160.006 425.75 229.665 351.955 272.292C278.161 314.92 157.477 314.92 83.6819 272.292Z" stroke="#BD8ACE" stroke-miterlimit="10" stroke-linecap="round" stroke-linejoin="round"/>
</g>
<g opacity="0.1">
<path d="M67.9339 281.397C-14.5466 233.829 -14.5466 155.984 67.9339 108.345C150.414 60.7065 285.293 60.777 367.773 108.345C450.254 155.913 450.254 233.758 367.773 281.397C285.293 329.035 150.344 329.035 67.9339 281.397Z" stroke="#BD8ACE" stroke-miterlimit="10" stroke-linecap="round" stroke-linejoin="round"/>
</g>
<path d="M160.865 134.529L218.206 101.429L275.547 134.529L218.206 167.629L160.865 134.529Z" fill="#400168" stroke="#BD8ACE" stroke-miterlimit="10" stroke-linecap="round" stroke-linejoin="round"/>
<path d="M218.206 233.758V167.628L275.547 134.528V200.658L218.206 233.758Z" fill="#341949" stroke="#BD8ACE" stroke-miterlimit="10" stroke-linecap="round" stroke-linejoin="round"/>
<path d="M160.865 134.528V200.658L218.206 233.758V167.628L160.865 134.528Z" fill="#260033" stroke="#BD8ACE" stroke-miterlimit="10" stroke-linecap="round" stroke-linejoin="round"/>
<path d="M251.608 58.0244H184.734V140.033L218.207 159.301L251.608 140.033V58.0244Z" fill="url(#paint0_linear_5485_20690)"/>
<path d="M91.5908 204.046L123.157 222.255L154.722 204.046L123.157 185.838L91.5908 204.046Z" fill="#400168" stroke="#BD8ACE" stroke-miterlimit="10" stroke-linecap="round" stroke-linejoin="round"/>
<path d="M123.156 258.672V222.255L154.722 204.047V240.464L123.156 258.672Z" fill="#341949" stroke="#BD8ACE" stroke-miterlimit="10" stroke-linecap="round" stroke-linejoin="round"/>
<path d="M91.5908 240.464V204.047L123.157 222.255V258.672L91.5908 240.464Z" fill="#260033" stroke="#BD8ACE" stroke-miterlimit="10" stroke-linecap="round" stroke-linejoin="round"/>
<path d="M107.338 234.959C105.572 233.971 104.16 231.5 104.16 229.524C104.16 227.548 105.572 226.701 107.338 227.689C109.103 228.677 110.516 231.148 110.516 233.124C110.516 235.1 109.103 236.017 107.338 234.959Z" fill="#BD8ACE"/>
<path d="M280.985 204.046L312.551 222.255L344.117 204.046L312.551 185.838L280.985 204.046Z" fill="#400168" stroke="#BD8ACE" stroke-miterlimit="10" stroke-linecap="round" stroke-linejoin="round"/>
<path d="M312.551 258.672V222.255L344.117 204.047V240.464L312.551 258.672Z" fill="#341949" stroke="#BD8ACE" stroke-miterlimit="10" stroke-linecap="round" stroke-linejoin="round"/>
<path d="M328.299 234.959C326.533 235.947 325.121 235.17 325.121 233.124C325.121 231.147 326.533 228.677 328.299 227.689C330.064 226.701 331.476 227.477 331.476 229.524C331.476 231.5 330.064 233.97 328.299 234.959Z" fill="#BD8ACE"/>
<path d="M280.985 240.464V204.047L312.551 222.255V258.672L280.985 240.464Z" fill="#260033" stroke="#BD8ACE" stroke-miterlimit="10" stroke-linecap="round" stroke-linejoin="round"/>
<g opacity="0.3">
<path d="M186.641 276.951L218.207 295.159L249.772 276.951L218.207 258.742L186.641 276.951Z" fill="#400168" stroke="#BD8ACE" stroke-miterlimit="10" stroke-linecap="round" stroke-linejoin="round"/>
<path d="M218.206 331.647V295.16L249.772 276.951V313.368L218.206 331.647Z" fill="#341949" stroke="#BD8ACE" stroke-miterlimit="10" stroke-linecap="round" stroke-linejoin="round"/>
<path d="M186.641 313.368V276.951L218.207 295.16V331.647L186.641 313.368Z" fill="#260033" stroke="#BD8ACE" stroke-miterlimit="10" stroke-linecap="round" stroke-linejoin="round"/>
</g>
<g opacity="0.3">
<path d="M186.641 19.5611L218.207 37.7696L249.772 19.5611L218.207 1.35254L186.641 19.5611Z" fill="#400168" stroke="#BD8ACE" stroke-miterlimit="10" stroke-linecap="round" stroke-linejoin="round"/>
<path d="M218.206 74.1861V37.7691L249.772 19.5605V55.9776L218.206 74.1861Z" fill="#341949" stroke="#BD8ACE" stroke-miterlimit="10" stroke-linecap="round" stroke-linejoin="round"/>
<path d="M186.641 55.9786V19.5615L218.207 37.7701V74.1871L186.641 55.9786Z" fill="#260033" stroke="#BD8ACE" stroke-miterlimit="10" stroke-linecap="round" stroke-linejoin="round"/>
</g>
<g opacity="0.3">
<path d="M0.353516 149.35L31.9193 167.629L63.485 149.35L31.9193 131.142L0.353516 149.35Z" fill="#400168" stroke="#BD8ACE" stroke-miterlimit="10" stroke-linecap="round" stroke-linejoin="round"/>
<path d="M31.9189 204.046V167.629L63.4847 149.35V185.837L31.9189 204.046Z" fill="#341949" stroke="#BD8ACE" stroke-miterlimit="10" stroke-linecap="round" stroke-linejoin="round"/>
<path d="M0.353516 185.838V149.351L31.9193 167.63V204.047L0.353516 185.838Z" fill="#260033" stroke="#BD8ACE" stroke-miterlimit="10" stroke-linecap="round" stroke-linejoin="round"/>
</g>
<g opacity="0.3">
<path d="M371.516 148.574L403.082 166.782L434.647 148.574L403.082 130.365L371.516 148.574Z" fill="#400168" stroke="#BD8ACE" stroke-miterlimit="10" stroke-linecap="round" stroke-linejoin="round"/>
<path d="M403.081 203.2V166.783L434.647 148.574V184.991L403.081 203.2Z" fill="#341949" stroke="#BD8ACE" stroke-miterlimit="10" stroke-linecap="round" stroke-linejoin="round"/>
<path d="M371.516 184.991V148.574L403.082 166.783V203.2L371.516 184.991Z" fill="#260033" stroke="#BD8ACE" stroke-miterlimit="10" stroke-linecap="round" stroke-linejoin="round"/>
</g>
<path d="M91.5908 94.7242L123.157 112.933L154.722 94.7242L123.157 76.5156L91.5908 94.7242Z" fill="#400168" stroke="#BD8ACE" stroke-miterlimit="10" stroke-linecap="round" stroke-linejoin="round"/>
<path d="M123.156 149.35V112.933L154.722 94.7246V131.142L123.156 149.35Z" fill="#341949" stroke="#BD8ACE" stroke-miterlimit="10" stroke-linecap="round" stroke-linejoin="round"/>
<path d="M91.5908 131.142V94.7246L123.157 112.933V149.35L91.5908 131.142Z" fill="#260033" stroke="#BD8ACE" stroke-miterlimit="10" stroke-linecap="round" stroke-linejoin="round"/>
<path d="M280.985 94.7242L312.551 112.933L344.117 94.7242L312.551 76.5156L280.985 94.7242Z" fill="#400168" stroke="#BD8ACE" stroke-miterlimit="10" stroke-linecap="round" stroke-linejoin="round"/>
<path d="M312.551 149.35V112.933L344.117 94.7246V131.142L312.551 149.35Z" fill="#341949" stroke="#BD8ACE" stroke-miterlimit="10" stroke-linecap="round" stroke-linejoin="round"/>
<path d="M280.985 131.142V94.7246L312.551 112.933V149.35L280.985 131.142Z" fill="#260033" stroke="#BD8ACE" stroke-miterlimit="10" stroke-linecap="round" stroke-linejoin="round"/>
<path d="M296.732 125.707C294.967 124.719 293.555 122.249 293.555 120.272C293.555 118.296 294.967 117.449 296.732 118.437C298.498 119.425 299.91 121.896 299.91 123.872C299.91 125.918 298.498 126.695 296.732 125.707Z" fill="#BD8ACE"/>
<path d="M350.118 243.78L328.298 231.358" stroke="#BD8ACE" stroke-width="3" stroke-miterlimit="10" stroke-linecap="round"/>
<g opacity="0.7">
<path d="M25.7756 253.307L47.9493 266.082L70.0524 253.307L47.9493 240.533L25.7756 253.307Z" fill="#400168" stroke="#BD8ACE" stroke-miterlimit="10" stroke-linecap="round" stroke-linejoin="round"/>
<path d="M47.9493 291.63V266.082L70.0524 253.308V278.856L47.9493 291.63Z" fill="#341949" stroke="#BD8ACE" stroke-miterlimit="10" stroke-linecap="round" stroke-linejoin="round"/>
<path d="M25.7756 278.856L47.9493 291.63V266.082L25.7756 253.308V278.856Z" fill="#260033" stroke="#BD8ACE" stroke-miterlimit="10" stroke-linecap="round" stroke-linejoin="round"/>
<path d="M25.7756 278.856L47.9493 291.63V266.082L25.7756 253.308V278.856Z" fill="#260033" stroke="#BD8ACE" stroke-miterlimit="10" stroke-linecap="round" stroke-linejoin="round"/>
</g>
<g opacity="0.7">
<path d="M25.7756 58.3071L47.9493 71.0813L70.0524 58.3777L47.9493 45.6035L25.7756 58.3071Z" fill="#400168" stroke="#BD8ACE" stroke-miterlimit="10" stroke-linecap="round" stroke-linejoin="round"/>
<path d="M47.9493 96.63V71.0816L70.0524 58.3779V83.8558L47.9493 96.63Z" fill="#341949" stroke="#BD8ACE" stroke-miterlimit="10" stroke-linecap="round" stroke-linejoin="round"/>
<path d="M25.7756 83.856L47.9493 96.6302V71.0818L25.7756 58.3076V83.856Z" fill="#260033" stroke="#BD8ACE" stroke-miterlimit="10" stroke-linecap="round" stroke-linejoin="round"/>
</g>
<g opacity="0.7">
<path d="M363.183 58.3071L385.356 71.0813L407.459 58.3777L385.356 45.6035L363.183 58.3071Z" fill="#400168" stroke="#BD8ACE" stroke-miterlimit="10" stroke-linecap="round" stroke-linejoin="round"/>
<path d="M385.356 96.63V71.0816L407.459 58.3779V83.8558L385.356 96.63Z" fill="#400168" stroke="#BD8ACE" stroke-miterlimit="10" stroke-linecap="round" stroke-linejoin="round"/>
<path d="M363.183 83.856L385.356 96.6302V71.0818L363.183 58.3076V83.856Z" fill="#400168" stroke="#BD8ACE" stroke-miterlimit="10" stroke-linecap="round" stroke-linejoin="round"/>
<path d="M372.08 76.2334C372.08 77.6449 373.069 79.3387 374.269 80.0445C375.47 80.7502 376.458 80.1856 376.458 78.7741C376.458 77.3626 375.47 75.6688 374.269 74.963C373.069 74.2573 372.08 74.8219 372.08 76.2334Z" fill="#BD8ACE"/>
</g>
<g opacity="0.7">
<path d="M369.68 254.578L389.594 266.082L409.508 254.578L389.594 243.074L369.68 254.578Z" fill="#400168" stroke="#BD8ACE" stroke-miterlimit="10" stroke-linecap="round" stroke-linejoin="round"/>
<path d="M389.594 289.09V266.082L409.508 254.578V277.586L389.594 289.09Z" fill="#341949" stroke="#BD8ACE" stroke-miterlimit="10" stroke-linecap="round" stroke-linejoin="round"/>
<path d="M369.68 277.586L389.594 289.09V266.082L369.68 254.578V277.586Z" fill="#260033" stroke="#BD8ACE" stroke-miterlimit="10" stroke-linecap="round" stroke-linejoin="round"/>
</g>
<path d="M58.9655 80.0445C57.765 80.7502 56.7764 80.1856 56.7764 78.7741C56.7764 77.3626 57.765 75.6688 58.9655 74.963C60.166 74.2573 61.1546 74.8219 61.1546 76.2334C61.2253 77.6449 60.2366 79.3387 58.9655 80.0445Z" fill="#BD8ACE"/>
<path d="M58.9658 77.292L77.7499 88.0195" stroke="#BD8ACE" stroke-width="3" stroke-miterlimit="10" stroke-linecap="round"/>
<path d="M107.409 231.358L73.6543 250.978" stroke="#BD8ACE" stroke-width="3" stroke-miterlimit="10" stroke-linecap="round"/>
<path d="M179.791 189.648L158.889 201.576" stroke="#BD8ACE" stroke-width="3" stroke-miterlimit="10" stroke-linecap="round"/>
<path d="M296.662 122.107L275.76 134.105" stroke="#BD8ACE" stroke-width="3" stroke-miterlimit="10" stroke-linecap="round"/>
<path d="M374.27 77.292L350.613 90.9837" stroke="#BD8ACE" stroke-width="3" stroke-miterlimit="10" stroke-linecap="round"/>
<path d="M198.363 63.8125H197.022V140.034H198.363V63.8125Z" fill="url(#paint1_linear_5485_20690)"/>
<path d="M203.095 45.3213H201.753V121.543H203.095V45.3213Z" fill="url(#paint2_linear_5485_20690)"/>
<path d="M218.489 62.2598H217.147V138.482H218.489V62.2598Z" fill="url(#paint3_linear_5485_20690)"/>
<path d="M223.433 37.7695H222.091V113.991H223.433V37.7695Z" fill="url(#paint4_linear_5485_20690)"/>
<g opacity="0.3">
<path d="M221.313 275.186C220.748 274.833 219.972 274.621 219.195 274.551V276.95C219.195 277.515 218.701 278.009 218.136 278.009C217.571 278.009 217.076 277.515 217.076 276.95V274.551C216.3 274.692 215.593 274.904 214.958 275.186C213.192 276.174 213.192 277.797 214.958 278.856C216.723 279.844 219.548 279.844 221.243 278.856C223.079 277.797 223.079 276.174 221.313 275.186Z" fill="#BD8ACE"/>
<path d="M218.207 277.939C218.772 277.939 219.266 277.445 219.266 276.88V274.48V240.463C219.266 239.898 218.772 239.404 218.207 239.404C217.642 239.404 217.147 239.898 217.147 240.463V274.48V276.88C217.147 277.445 217.571 277.939 218.207 277.939Z" fill="#BD8ACE"/>
</g>
<g opacity="0.8">
<path d="M114.753 99.5937C110.092 96.9118 110.022 92.5361 114.682 89.8542C119.343 87.1724 126.899 87.1724 131.56 89.9248C136.22 92.6067 136.291 96.9824 131.63 99.6643C126.97 102.276 119.414 102.276 114.753 99.5937ZM130.924 90.2777C126.617 87.8075 119.555 87.737 115.247 90.2777C110.94 92.7478 110.94 96.8412 115.318 99.3114C119.625 101.782 126.687 101.852 130.995 99.3114C135.302 96.7707 135.302 92.7478 130.924 90.2777Z" fill="#51C9A0"/>
</g>
<g opacity="0.4">
<path d="M113.129 100.512C107.55 97.2652 107.55 92.1131 113.058 88.8667C118.566 85.6202 127.605 85.6908 133.184 88.9372C138.763 92.1837 138.763 97.3357 133.254 100.582C127.746 103.829 118.707 103.758 113.129 100.512ZM132.548 89.2901C127.323 86.2554 118.849 86.2554 113.623 89.2195C108.397 92.1837 108.468 97.124 113.694 100.159C118.919 103.194 127.393 103.194 132.619 100.229C137.845 97.1946 137.774 92.3249 132.548 89.2901Z" fill="#51C9A0"/>
</g>
<path d="M120.402 95.8534L121.532 95.2183C121.108 95.0065 120.755 94.5831 120.543 94.0185C120.332 93.2422 121.179 92.4658 121.179 92.4658C121.179 92.4658 122.45 93.0304 122.662 93.8068C122.733 94.0891 122.733 94.3008 122.733 94.5125L123.509 94.0891C123.651 93.8067 124.074 93.3833 124.71 93.0304C125.699 92.4658 127.252 92.4658 127.252 92.4658C127.252 92.4658 127.181 93.3833 126.193 93.9479C125.557 94.3008 124.922 94.5125 124.357 94.5831L123.509 95.0771C123.862 95.0771 124.357 95.0771 124.78 95.1477C126.193 95.2888 127.111 96.0652 127.111 96.0652C127.111 96.0652 125.769 96.5592 124.427 96.4181C123.439 96.2769 122.662 96.0652 122.309 95.8534L121.108 96.4886C121.461 96.4886 121.956 96.4886 122.38 96.5592C123.792 96.7004 124.71 97.4767 124.71 97.4767C124.71 97.4767 123.368 97.9707 122.026 97.8296C120.967 97.6884 120.12 97.4767 119.837 97.1944L119.202 96.7709C118.778 96.6298 118.284 96.1357 118.142 95.5006C117.931 94.7242 118.778 93.9479 118.778 93.9479C118.778 93.9479 120.049 94.5125 120.261 95.2888C120.402 95.3594 120.473 95.6417 120.402 95.8534Z" fill="#51C9A0"/>
<g opacity="0.8">
<path d="M114.4 209.763C109.739 207.081 110.304 202.352 115.741 199.247C121.179 196.142 129.3 195.789 133.961 198.471C138.621 201.153 138.056 205.881 132.619 208.986C127.252 212.162 119.06 212.515 114.4 209.763ZM133.254 198.894C128.947 196.424 121.32 196.706 116.306 199.6C111.293 202.493 110.728 206.869 115.106 209.339C119.413 211.809 127.04 211.527 132.054 208.634C137.068 205.811 137.562 201.435 133.254 198.894Z" fill="#51C9A0"/>
</g>
<g opacity="0.4">
<path d="M112.493 210.892C106.915 207.645 107.621 202.07 114.047 198.329C120.473 194.589 130.218 194.236 135.797 197.412C141.376 200.658 140.67 206.234 134.243 209.974C127.817 213.715 118.072 214.068 112.493 210.892ZM135.161 197.835C129.936 194.8 120.756 195.224 114.682 198.682C108.609 202.14 107.974 207.433 113.2 210.468C118.425 213.503 127.605 213.079 133.678 209.621C139.751 206.163 140.387 200.87 135.161 197.835Z" fill="#51C9A0"/>
</g>
<path d="M129.582 201.081C129.653 201.011 129.794 201.011 129.935 201.081C130.006 201.152 130.006 201.222 129.935 201.293L128.876 201.858C128.806 202.281 128.452 203.128 127.464 203.693C126.052 204.469 123.721 204.61 123.721 204.61C123.721 204.61 123.862 203.34 125.416 202.422C126.334 201.928 127.888 201.716 128.594 201.646L129.582 201.081ZM122.238 202.493C121.673 202.775 120.543 203.34 120.261 204.045C119.625 205.316 120.614 206.374 120.614 206.374C120.614 206.374 122.521 206.939 124.639 206.657C125.84 206.445 126.899 205.81 127.323 205.528L128.523 204.822C128.594 204.751 128.664 204.681 128.523 204.61C128.452 204.539 128.311 204.539 128.17 204.61L127.181 205.175C126.546 205.033 125.133 204.751 123.862 204.963C123.156 205.104 122.521 205.316 121.956 205.528C122.379 205.245 122.733 204.892 122.944 204.469C123.297 203.763 122.874 202.916 122.591 202.563L123.58 201.999C123.651 201.928 123.721 201.858 123.58 201.787C123.509 201.716 123.368 201.716 123.227 201.787L122.238 202.493Z" fill="#51C9A0"/>
<g opacity="0.8">
<path d="M302.735 209.692C298.074 207.011 298.639 202.282 304.076 199.177C309.443 196.071 317.635 195.718 322.296 198.4C326.956 201.082 326.391 205.811 320.954 208.916C315.587 212.021 307.395 212.374 302.735 209.692ZM321.589 198.753C317.282 196.283 309.655 196.565 304.641 199.459C299.628 202.353 299.063 206.728 303.441 209.198C307.748 211.669 315.375 211.386 320.389 208.493C325.403 205.599 325.968 201.294 321.589 198.753Z" fill="#51C9A0"/>
</g>
<g opacity="0.4">
<path d="M300.899 210.751C295.32 207.505 296.026 201.929 302.452 198.189C308.878 194.448 318.623 194.095 324.202 197.271C329.781 200.518 329.075 206.093 322.649 209.834C316.223 213.574 306.407 213.997 300.899 210.751ZM323.496 197.694C318.27 194.66 309.09 195.083 303.017 198.541C296.944 202 296.309 207.293 301.534 210.328C306.76 213.362 315.94 212.939 322.013 209.481C328.086 206.022 328.722 200.729 323.496 197.694Z" fill="#51C9A0"/>
</g>
<path d="M309.443 205.317L310.785 204.54C310.361 204.328 310.008 203.834 309.938 203.27C309.796 202.423 310.856 201.576 310.856 201.576C310.856 201.576 312.127 202.141 312.268 202.988C312.339 203.27 312.268 203.552 312.268 203.764L313.186 203.27C313.327 202.917 313.892 202.493 314.598 202.07C315.728 201.435 317.423 201.364 317.423 201.364C317.423 201.364 317.282 202.352 316.081 202.988C315.375 203.411 314.598 203.693 314.033 203.764L313.045 204.328C313.468 204.328 313.892 204.328 314.386 204.328C315.869 204.399 316.717 205.175 316.717 205.175C316.717 205.175 315.234 205.74 313.751 205.669C312.692 205.599 311.844 205.387 311.562 205.105L310.22 205.881C310.644 205.881 311.067 205.881 311.562 205.881C313.045 205.952 313.892 206.728 313.892 206.728C313.892 206.728 312.409 207.293 310.926 207.222C309.796 207.151 308.949 206.94 308.666 206.657L308.031 206.234C307.537 206.093 307.184 205.528 307.042 204.893C306.901 204.046 307.96 203.199 307.96 203.199C307.96 203.199 309.231 203.764 309.373 204.611C309.514 204.822 309.514 205.105 309.443 205.317Z" fill="#51C9A0"/>
<g opacity="0.8">
<path d="M303.3 100.652C298.639 97.9705 299.204 93.2419 304.642 90.1366C310.079 87.0313 318.2 86.6784 322.861 89.3603C327.522 92.0422 326.957 96.7707 321.519 99.8761C316.152 103.052 307.961 103.334 303.3 100.652ZM322.155 89.7837C317.847 87.3136 310.221 87.5959 305.207 90.4895C300.193 93.3831 299.628 97.7588 304.006 100.229C308.314 102.699 315.94 102.417 320.954 99.5232C325.968 96.7002 326.462 92.2539 322.155 89.7837Z" fill="#51C9A0"/>
</g>
<g opacity="0.4">
<path d="M301.394 101.781C295.815 98.5348 296.521 92.9593 302.947 89.2188C309.373 85.4783 319.119 85.1254 324.697 88.3013C330.276 91.5478 329.57 97.1233 323.144 100.864C316.718 104.534 306.972 104.957 301.394 101.781ZM324.062 88.7248C318.836 85.69 309.656 86.1135 303.583 89.5717C297.51 93.0299 296.874 98.3231 302.1 101.358C307.326 104.393 316.506 103.969 322.579 100.511C328.581 96.9821 329.287 91.6889 324.062 88.7248Z" fill="#51C9A0"/>
</g>
<path d="M318.483 91.9709C318.553 91.9003 318.695 91.9003 318.836 91.9709C318.906 92.0415 318.906 92.1121 318.836 92.1826L317.777 92.7472C317.706 93.1707 317.353 94.0176 316.364 94.5822C314.952 95.3585 312.622 95.4997 312.622 95.4997C312.622 95.4997 312.763 94.2293 314.316 93.3118C315.234 92.8178 316.788 92.6061 317.494 92.5355L318.483 91.9709ZM311.139 93.3118C310.574 93.5941 309.444 94.1588 309.161 94.8645C308.526 96.1349 309.514 97.1935 309.514 97.1935C309.514 97.1935 311.421 97.7581 313.54 97.4758C314.74 97.2641 315.799 96.6289 316.223 96.3466L317.424 95.6408C317.494 95.5703 317.565 95.4997 317.424 95.4291C317.353 95.3585 317.212 95.3585 317.07 95.4291L316.082 95.9937C315.446 95.8526 314.034 95.5703 312.763 95.782C312.057 95.9231 311.421 96.1349 310.856 96.3466C311.28 96.0643 311.633 95.7114 311.845 95.288C312.198 94.5822 311.774 93.7353 311.492 93.3824L312.48 92.8178C312.551 92.7472 312.622 92.6767 312.48 92.6061C312.41 92.5355 312.268 92.5355 312.127 92.6061L311.139 93.3118Z" fill="#51C9A0"/>
<defs>
<linearGradient id="paint0_linear_5485_20690" x1="203.108" y1="155.287" x2="230.65" y2="52.4396" gradientUnits="userSpaceOnUse">
<stop stop-color="#51C9A0"/>
<stop offset="0.6807" stop-color="#51C9A0" stop-opacity="0"/>
</linearGradient>
<linearGradient id="paint1_linear_5485_20690" x1="197.664" y1="140.03" x2="197.664" y2="63.7978" gradientUnits="userSpaceOnUse">
<stop stop-color="#51C9A0"/>
<stop offset="1" stop-color="#51C9A0" stop-opacity="0"/>
</linearGradient>
<linearGradient id="paint2_linear_5485_20690" x1="202.406" y1="121.555" x2="202.406" y2="45.3234" gradientUnits="userSpaceOnUse">
<stop stop-color="#51C9A0"/>
<stop offset="1" stop-color="#51C9A0" stop-opacity="0"/>
</linearGradient>
<linearGradient id="paint3_linear_5485_20690" x1="217.838" y1="138.499" x2="217.838" y2="62.267" gradientUnits="userSpaceOnUse">
<stop stop-color="#51C9A0"/>
<stop offset="1" stop-color="#51C9A0" stop-opacity="0"/>
</linearGradient>
<linearGradient id="paint4_linear_5485_20690" x1="222.719" y1="114.01" x2="222.719" y2="37.7781" gradientUnits="userSpaceOnUse">
<stop stop-color="#51C9A0"/>
<stop offset="1" stop-color="#51C9A0" stop-opacity="0"/>
</linearGradient>
</defs>
</svg>
