<svg width="297" height="265" viewBox="0 0 297 265" fill="none" xmlns="http://www.w3.org/2000/svg">
<g clip-path="url(#clip0_5485_20823)">
<path d="M0.301941 101.486L54.291 70.3525L108.28 101.486L54.291 132.62L0.301941 101.486Z" fill="#400168" stroke="#BD8ACE" stroke-miterlimit="10" stroke-linecap="round" stroke-linejoin="round"/>
<path d="M54.291 210.516V132.621L0.301941 101.487V179.382L54.291 210.516Z" fill="#260033" stroke="#BD8ACE" stroke-miterlimit="10" stroke-linecap="round" stroke-linejoin="round"/>
<path d="M108.28 179.382V101.487L54.291 132.621V210.516L108.28 179.382Z" fill="url(#paint0_linear_5485_20823)"/>
<path d="M108.28 179.382V101.487L54.291 132.621V210.516L108.28 179.382Z" fill="#341949" stroke="#BD8ACE" stroke-miterlimit="10" stroke-linecap="round" stroke-linejoin="round"/>
<path d="M1.75131 0.301758L13.769 101.487L54.291 124.837L94.7525 101.487L106.831 0.301758H1.75131Z" fill="url(#paint1_linear_5485_20823)"/>
<path d="M20.7746 148.73L21.3785 157.298L27.8403 165.202L33.8189 164.478L33.215 155.91L26.6929 148.066L20.7746 148.73Z" fill="#260033" stroke="#BD8ACE" stroke-miterlimit="10" stroke-linecap="round" stroke-linejoin="round"/>
<path d="M22.7072 151.084L23.1299 157.118L27.7196 162.609L31.8262 162.126L31.4638 156.153L26.8742 150.602L22.7072 151.084Z" fill="#51C9A0"/>
<path d="M77.4201 156.152V164.78L83.9423 165.323L90.4644 157.238V148.609L83.9423 148.066L77.4201 156.152Z" fill="#341949" stroke="#BD8ACE" stroke-miterlimit="10" stroke-linecap="round" stroke-linejoin="round"/>
<path d="M79.3527 156.273V162.307L83.9424 162.73L88.5321 157.058V151.024L83.9424 150.662L79.3527 156.273Z" fill="#51C9A0"/>
<path opacity="0.8" d="M55.1364 66.3113C68.5776 66.3113 79.4738 55.4247 79.4738 41.9955C79.4738 28.5662 68.5776 17.6797 55.1364 17.6797C41.6953 17.6797 30.7991 28.5662 30.7991 41.9955C30.7991 55.4247 41.6953 66.3113 55.1364 66.3113Z" stroke="#51C9A0" stroke-width="3" stroke-miterlimit="10"/>
<path opacity="0.4" d="M55.1364 71.1982C71.2791 71.1982 84.3654 58.1235 84.3654 41.9951C84.3654 25.8667 71.2791 12.792 55.1364 12.792C38.9937 12.792 25.9075 25.8667 25.9075 41.9951C25.9075 58.1235 38.9937 71.1982 55.1364 71.1982Z" stroke="#51C9A0" stroke-width="3" stroke-miterlimit="10"/>
<path d="M53.9288 48.8733L53.9892 45.4341C52.8417 45.4944 51.0904 44.891 49.3995 43.6843C46.9839 41.9345 46.38 38.6763 46.38 38.6763C46.38 38.6763 49.7014 38.1936 52.0567 39.9434C52.8417 40.4864 53.506 41.0898 54.0496 41.6932V39.4004C53.4457 38.435 53.0229 36.7455 53.0229 34.8751C53.0229 31.9186 55.3781 29.5654 55.3781 29.5654C55.3781 29.5654 57.673 31.9789 57.6126 34.9354C57.6126 36.7455 57.1899 38.3746 56.5859 39.34V41.8138C57.1295 41.2105 57.7938 40.6071 58.6392 40.0641C61.0548 38.3746 64.3763 38.9177 64.3763 38.9177C64.3763 38.9177 63.712 42.1759 61.236 43.8653C59.4847 45.072 57.7334 45.6754 56.5859 45.5547L56.5256 49.0543C57.0691 48.4509 57.7334 47.8475 58.5788 47.3045C60.9945 45.6151 64.3159 46.1581 64.3159 46.1581C64.3159 46.1581 63.6516 49.4163 61.1756 51.1057C59.3035 52.3728 57.371 52.9762 56.2236 52.7348H54.2307C53.0833 52.9762 51.1508 52.3125 49.3391 51.0454C46.9235 49.2956 46.3196 46.0374 46.3196 46.0374C46.3196 46.0374 49.6411 45.5547 51.9963 47.3045C52.721 47.6665 53.3853 48.2699 53.9288 48.8733Z" fill="#51C9A0"/>
<path d="M52.5398 38.9179C52.1171 37.7715 51.8755 36.3838 51.8755 34.8754C51.8755 34.2117 51.9963 33.548 52.1774 33.0049L50.4261 29.9277H43.3L47.8897 37.5302C49.2183 37.5905 50.9696 37.8922 52.5398 38.9179Z" fill="#51C9A0"/>
<path d="M63.7112 49.8994C63.2281 50.6235 62.5638 51.2872 61.7787 51.8905C60.7521 52.5542 59.7858 53.0973 58.8196 53.399L60.2086 55.8124H67.395L63.7112 49.8994Z" fill="#51C9A0"/>
<path d="M58.7599 34.9357C58.7599 36.5045 58.458 37.9526 57.9749 39.099C59.4242 38.0732 61.1755 37.7715 62.4437 37.7112L67.1542 29.9277H60.0885L58.3976 32.8239C58.6391 33.4273 58.7599 34.1513 58.7599 34.9357Z" fill="#51C9A0"/>
<path d="M48.6139 51.7699C47.8289 51.2268 47.225 50.5631 46.8022 49.8994L43.1184 55.8124H50.2445L51.6938 53.399C50.7276 53.0369 49.6406 52.4939 48.6139 51.7699Z" fill="#51C9A0"/>
<path d="M41.4882 93.8848H40.3408V115.063H41.4882V93.8848Z" fill="url(#paint2_linear_5485_20823)"/>
<path d="M48.1915 86.2822H47.0441V107.461H48.1915V86.2822Z" fill="url(#paint3_linear_5485_20823)"/>
<path d="M54.8945 78.4385H53.747V99.6168H54.8945V78.4385Z" fill="url(#paint4_linear_5485_20823)"/>
<path d="M61.5378 86.2822H60.3904V107.461H61.5378V86.2822Z" fill="url(#paint5_linear_5485_20823)"/>
<path d="M68.2412 94.8506H67.0938V116.029H68.2412V94.8506Z" fill="url(#paint6_linear_5485_20823)"/>
<path d="M52.9023 98.7119H51.7549V119.89H52.9023V98.7119Z" fill="url(#paint7_linear_5485_20823)"/>
<path d="M188.72 101.185L242.709 70.0508L296.698 101.185L242.709 132.379L188.72 101.185Z" fill="#400168" stroke="#BD8ACE" stroke-miterlimit="10" stroke-linecap="round" stroke-linejoin="round"/>
<path d="M242.709 210.214V132.38L188.72 101.186V179.081L242.709 210.214Z" fill="#260033" stroke="#BD8ACE" stroke-miterlimit="10" stroke-linecap="round" stroke-linejoin="round"/>
<path d="M296.698 179.081V101.186L242.709 132.38V210.214L296.698 179.081Z" fill="url(#paint8_linear_5485_20823)"/>
<path d="M296.698 179.081V101.186L242.709 132.38V210.214L296.698 179.081Z" fill="#341949" stroke="#BD8ACE" stroke-miterlimit="10" stroke-linecap="round" stroke-linejoin="round"/>
<path d="M190.109 0L202.187 101.185L242.709 124.596L283.17 101.185L295.248 0H190.109Z" fill="url(#paint9_linear_5485_20823)"/>
<path d="M209.193 148.429L209.736 156.997L216.258 164.901L222.237 164.177L221.633 155.609L215.111 147.766L209.193 148.429Z" fill="#260033" stroke="#BD8ACE" stroke-miterlimit="10" stroke-linecap="round" stroke-linejoin="round"/>
<path d="M211.125 150.842L211.548 156.815L216.077 162.306L220.244 161.823L219.821 155.85L215.292 150.299L211.125 150.842Z" fill="#51C9A0"/>
<path d="M265.838 155.851V164.479L272.36 165.022L278.882 156.937V148.309L272.36 147.766L265.838 155.851Z" fill="#341949" stroke="#BD8ACE" stroke-miterlimit="10" stroke-linecap="round" stroke-linejoin="round"/>
<path d="M267.771 156.031V162.065L272.36 162.427L276.89 156.755V150.721L272.36 150.359L267.771 156.031Z" fill="#51C9A0"/>
<path opacity="0.8" d="M243.554 66.0095C256.996 66.0095 267.892 55.123 267.892 41.6937C267.892 28.2645 256.996 17.3779 243.554 17.3779C230.113 17.3779 219.217 28.2645 219.217 41.6937C219.217 55.123 230.113 66.0095 243.554 66.0095Z" stroke="#51C9A0" stroke-width="3" stroke-miterlimit="10"/>
<path opacity="0.4" d="M243.554 70.8964C259.697 70.8964 272.783 57.8218 272.783 41.6933C272.783 25.5649 259.697 12.4902 243.554 12.4902C227.412 12.4902 214.326 25.5649 214.326 41.6933C214.326 57.8218 227.412 70.8964 243.554 70.8964Z" stroke="#51C9A0" stroke-width="3" stroke-miterlimit="10"/>
<path d="M243.736 27.8159C243.736 27.5746 243.917 27.3936 244.158 27.3936C244.4 27.3936 244.581 27.5746 244.581 27.8159V30.5311C245.427 31.5568 247.238 33.9099 247.178 36.3838C247.117 40.004 243.977 43.3829 243.977 43.3829C243.977 43.3829 240.897 40.4263 240.958 36.3234C240.958 34.0306 242.83 31.5568 243.675 30.5311L243.736 27.8159ZM236.308 40.4867C236.187 41.8141 236.066 44.5896 237.274 46.46C239.569 50.0199 243.917 51.2267 243.917 51.2267H243.977C243.977 51.2267 248.325 50.0803 250.68 46.5807C251.949 44.6499 251.888 41.8744 251.767 40.547V37.4698C251.767 37.2285 251.586 37.0475 251.345 37.0475C251.103 37.0475 250.922 37.2285 250.922 37.4698V40.0643C249.533 40.547 246.755 41.7538 245.366 43.8052C244.581 44.9516 244.158 46.279 243.977 47.4858C243.796 46.279 243.434 44.9516 242.709 43.7449C241.38 41.6331 238.602 40.366 237.213 39.8833V37.2888C237.213 37.0475 237.032 36.8665 236.791 36.8665C236.549 36.8665 236.368 37.0475 236.368 37.2888L236.308 40.4867Z" fill="#51C9A0"/>
<path d="M251.828 46.8818C251.768 47.0025 251.707 47.1232 251.587 47.2439C250.379 48.9936 248.748 50.2607 247.299 51.0451L248.869 53.6396H256.056L251.828 46.8818Z" fill="#51C9A0"/>
<path d="M237.879 36.263C238.181 36.5646 238.362 36.987 238.301 37.349V38.1334L239.147 39.5212C239.69 39.7625 240.173 40.0642 240.717 40.4262C240.173 39.2195 239.811 37.8317 239.811 36.2026C239.811 34.5735 240.536 33.0048 241.381 31.6773L239.026 27.6348H231.96L236.852 35.7803C237.275 35.8406 237.637 36.0216 237.879 36.263Z" fill="#51C9A0"/>
<path d="M248.326 36.3838C248.326 37.9526 247.783 39.4007 247.179 40.6678C247.601 40.3661 248.024 40.1851 248.447 39.9437L249.775 37.7112V37.5302C249.775 37.1079 249.957 36.7459 250.259 36.4442C250.379 36.3235 250.56 36.2028 250.742 36.0822L255.814 27.6953H248.809L246.635 31.3759C247.481 32.7033 248.326 34.5134 248.326 36.3838Z" fill="#51C9A0"/>
<path d="M236.368 47.063C236.308 46.9423 236.187 46.8216 236.127 46.6406L231.779 53.6397H238.965L240.535 50.9245C239.086 50.1402 237.516 48.8731 236.368 47.063Z" fill="#51C9A0"/>
<path d="M229.906 93.6426H228.759V114.821H229.906V93.6426Z" fill="url(#paint10_linear_5485_20823)"/>
<path d="M236.61 85.9795H235.462V107.158H236.61V85.9795Z" fill="url(#paint11_linear_5485_20823)"/>
<path d="M243.312 78.1963H242.165V99.3746H243.312V78.1963Z" fill="url(#paint12_linear_5485_20823)"/>
<path d="M249.956 85.9795H248.808V107.158H249.956V85.9795Z" fill="url(#paint13_linear_5485_20823)"/>
<path d="M256.659 94.5479H255.512V115.726H256.659V94.5479Z" fill="url(#paint14_linear_5485_20823)"/>
<path d="M241.32 98.4092H240.173V119.587H241.32V98.4092Z" fill="url(#paint15_linear_5485_20823)"/>
<path d="M94.209 155.669L148.198 124.535L202.187 155.669L148.198 186.803L94.209 155.669Z" fill="#400168" stroke="#BD8ACE" stroke-miterlimit="10" stroke-linecap="round" stroke-linejoin="round"/>
<path d="M148.198 264.699V186.804L94.209 155.67V233.565L148.198 264.699Z" fill="#260033" stroke="#BD8ACE" stroke-miterlimit="10" stroke-linecap="round" stroke-linejoin="round"/>
<path d="M202.187 233.565V155.67L148.198 186.804V264.699L202.187 233.565Z" fill="url(#paint16_linear_5485_20823)"/>
<path d="M202.187 233.565V155.67L148.198 186.804V264.699L202.187 233.565Z" fill="#341949" stroke="#BD8ACE" stroke-miterlimit="10" stroke-linecap="round" stroke-linejoin="round"/>
<path d="M95.6584 54.4844L107.736 155.669L148.198 179.02L188.72 155.669L200.798 54.4844H95.6584Z" fill="url(#paint17_linear_5485_20823)"/>
<path d="M114.682 202.914L115.286 211.482L121.808 219.386L127.726 218.662L127.182 210.094L120.66 202.25L114.682 202.914Z" fill="#260033" stroke="#BD8ACE" stroke-miterlimit="10" stroke-linecap="round" stroke-linejoin="round"/>
<path d="M116.674 205.266L117.036 211.3L121.626 216.79L125.793 216.308L125.37 210.334L120.78 204.783L116.674 205.266Z" fill="#51C9A0"/>
<path d="M171.327 210.335V218.963L177.849 219.506L184.371 211.421V202.793L177.849 202.25L171.327 210.335Z" fill="#341949" stroke="#BD8ACE" stroke-miterlimit="10" stroke-linecap="round" stroke-linejoin="round"/>
<path d="M173.32 210.455V216.489L177.85 216.911L182.439 211.239V205.206L177.85 204.844L173.32 210.455Z" fill="#51C9A0"/>
<path opacity="0.8" d="M149.104 120.494C162.545 120.494 173.441 109.607 173.441 96.1781C173.441 82.7489 162.545 71.8623 149.104 71.8623C135.663 71.8623 124.767 82.7489 124.767 96.1781C124.767 109.607 135.663 120.494 149.104 120.494Z" stroke="#51C9A0" stroke-width="3" stroke-miterlimit="10"/>
<path opacity="0.4" d="M149.104 125.381C165.247 125.381 178.333 112.306 178.333 96.1777C178.333 80.0493 165.247 66.9746 149.104 66.9746C132.961 66.9746 119.875 80.0493 119.875 96.1777C119.875 112.306 132.961 125.381 149.104 125.381Z" stroke="#51C9A0" stroke-width="3" stroke-miterlimit="10"/>
<path d="M149.829 83.4463C147.957 83.4463 146.387 86.9458 146.205 91.4108C146.749 91.7728 147.292 92.1348 147.776 92.4968C148.379 92.9192 148.863 93.4019 149.406 93.8846C149.95 93.3416 150.554 92.8589 151.278 92.4365C152.003 91.9538 152.728 91.5314 153.331 91.2298C153.09 86.8855 151.641 83.5066 149.829 83.4463ZM157.257 91.5918C156.109 91.5918 152.728 92.9192 150.433 95.031C151.339 96.1171 152.124 97.3841 152.486 98.7719C152.909 100.341 153.15 102.03 153.15 103.539C153.15 103.901 153.15 104.263 153.09 104.564C154.056 103.116 154.781 101.246 154.781 99.2546C154.781 96.7808 156.049 94.7293 156.895 93.3415C157.68 92.2555 158.102 91.6521 157.257 91.5918ZM142.159 91.4711C143.971 91.4711 149.768 94.9706 150.976 99.2546C152.063 102.995 151.822 107.46 149.587 107.4C147.776 107.4 144.394 103.599 144.454 99.1942C144.454 96.7204 143.246 94.669 142.401 93.2812C141.737 92.1348 141.374 91.4711 142.159 91.4711Z" fill="#51C9A0"/>
<path d="M154.419 91.2305C155.627 90.7478 156.653 90.5064 157.318 90.5064L161.303 83.9297H154.177L153.271 85.4381C153.936 87.0672 154.358 89.179 154.419 91.2305Z" fill="#51C9A0"/>
<path d="M142.16 90.3252C142.884 90.3252 143.911 90.6872 145.058 91.2906C145.119 89.6615 145.421 88.0324 145.843 86.5843L144.273 83.8691H137.087L141.133 90.5665C141.435 90.4459 141.737 90.3252 142.16 90.3252Z" fill="#51C9A0"/>
<path d="M155.807 101.005C155.566 102.513 154.962 103.961 154.116 105.289L152.667 107.461L154.297 110.176H161.605L155.807 101.005Z" fill="#51C9A0"/>
<path d="M145.42 105.651C144.696 104.625 143.488 102.574 143.367 99.8584L136.966 110.176H144.213L146.266 106.676C145.964 106.375 145.662 106.013 145.42 105.651Z" fill="#51C9A0"/>
<path d="M135.456 148.067H134.309V169.246H135.456V148.067Z" fill="url(#paint18_linear_5485_20823)"/>
<path d="M142.099 140.465H140.951V161.643H142.099V140.465Z" fill="url(#paint19_linear_5485_20823)"/>
<path d="M148.803 132.621H147.655V153.799H148.803V132.621Z" fill="url(#paint20_linear_5485_20823)"/>
<path d="M155.506 140.465H154.358V161.643H155.506V140.465Z" fill="url(#paint21_linear_5485_20823)"/>
<path d="M162.149 149.033H161.001V170.211H162.149V149.033Z" fill="url(#paint22_linear_5485_20823)"/>
<path d="M146.87 152.895H145.723V174.073H146.87V152.895Z" fill="url(#paint23_linear_5485_20823)"/>
</g>
<defs>
<linearGradient id="paint0_linear_5485_20823" x1="108.277" y1="179.355" x2="54.3296" y2="132.594" gradientUnits="userSpaceOnUse">
<stop stop-color="#51C9A0"/>
<stop offset="1" stop-color="#51C9A0" stop-opacity="0"/>
</linearGradient>
<linearGradient id="paint1_linear_5485_20823" x1="54.2913" y1="124.855" x2="54.2913" y2="0.287034" gradientUnits="userSpaceOnUse">
<stop stop-color="#51C9A0"/>
<stop offset="0.4928" stop-color="#51C9A0" stop-opacity="0"/>
</linearGradient>
<linearGradient id="paint2_linear_5485_20823" x1="40.9263" y1="93.9062" x2="40.9263" y2="115.083" gradientUnits="userSpaceOnUse">
<stop stop-color="#51C9A0"/>
<stop offset="1" stop-color="#51C9A0" stop-opacity="0"/>
</linearGradient>
<linearGradient id="paint3_linear_5485_20823" x1="47.6082" y1="86.2801" x2="47.6082" y2="107.457" gradientUnits="userSpaceOnUse">
<stop stop-color="#51C9A0"/>
<stop offset="1" stop-color="#51C9A0" stop-opacity="0"/>
</linearGradient>
<linearGradient id="paint4_linear_5485_20823" x1="54.2897" y1="78.4591" x2="54.2897" y2="99.6358" gradientUnits="userSpaceOnUse">
<stop stop-color="#51C9A0"/>
<stop offset="1" stop-color="#51C9A0" stop-opacity="0"/>
</linearGradient>
<linearGradient id="paint5_linear_5485_20823" x1="60.972" y1="86.2801" x2="60.972" y2="107.457" gradientUnits="userSpaceOnUse">
<stop stop-color="#51C9A0"/>
<stop offset="1" stop-color="#51C9A0" stop-opacity="0"/>
</linearGradient>
<linearGradient id="paint6_linear_5485_20823" x1="67.6539" y1="94.8301" x2="67.6539" y2="116.007" gradientUnits="userSpaceOnUse">
<stop stop-color="#51C9A0"/>
<stop offset="1" stop-color="#51C9A0" stop-opacity="0"/>
</linearGradient>
<linearGradient id="paint7_linear_5485_20823" x1="52.3335" y1="98.7268" x2="52.3335" y2="119.904" gradientUnits="userSpaceOnUse">
<stop stop-color="#51C9A0"/>
<stop offset="1" stop-color="#51C9A0" stop-opacity="0"/>
</linearGradient>
<linearGradient id="paint8_linear_5485_20823" x1="296.685" y1="179.068" x2="242.738" y2="132.307" gradientUnits="userSpaceOnUse">
<stop stop-color="#51C9A0"/>
<stop offset="1" stop-color="#51C9A0" stop-opacity="0"/>
</linearGradient>
<linearGradient id="paint9_linear_5485_20823" x1="242.699" y1="124.568" x2="242.699" y2="0" gradientUnits="userSpaceOnUse">
<stop stop-color="#51C9A0"/>
<stop offset="0.4928" stop-color="#51C9A0" stop-opacity="0"/>
</linearGradient>
<linearGradient id="paint10_linear_5485_20823" x1="229.335" y1="93.6184" x2="229.335" y2="114.795" gradientUnits="userSpaceOnUse">
<stop stop-color="#51C9A0"/>
<stop offset="1" stop-color="#51C9A0" stop-opacity="0"/>
</linearGradient>
<linearGradient id="paint11_linear_5485_20823" x1="236.017" y1="85.992" x2="236.017" y2="107.169" gradientUnits="userSpaceOnUse">
<stop stop-color="#51C9A0"/>
<stop offset="1" stop-color="#51C9A0" stop-opacity="0"/>
</linearGradient>
<linearGradient id="paint12_linear_5485_20823" x1="242.698" y1="78.1713" x2="242.698" y2="99.348" gradientUnits="userSpaceOnUse">
<stop stop-color="#51C9A0"/>
<stop offset="1" stop-color="#51C9A0" stop-opacity="0"/>
</linearGradient>
<linearGradient id="paint13_linear_5485_20823" x1="249.381" y1="85.992" x2="249.381" y2="107.169" gradientUnits="userSpaceOnUse">
<stop stop-color="#51C9A0"/>
<stop offset="1" stop-color="#51C9A0" stop-opacity="0"/>
</linearGradient>
<linearGradient id="paint14_linear_5485_20823" x1="256.062" y1="94.5421" x2="256.062" y2="115.719" gradientUnits="userSpaceOnUse">
<stop stop-color="#51C9A0"/>
<stop offset="1" stop-color="#51C9A0" stop-opacity="0"/>
</linearGradient>
<linearGradient id="paint15_linear_5485_20823" x1="240.742" y1="98.4388" x2="240.742" y2="119.616" gradientUnits="userSpaceOnUse">
<stop stop-color="#51C9A0"/>
<stop offset="1" stop-color="#51C9A0" stop-opacity="0"/>
</linearGradient>
<linearGradient id="paint16_linear_5485_20823" x1="202.206" y1="233.538" x2="148.259" y2="186.777" gradientUnits="userSpaceOnUse">
<stop stop-color="#51C9A0"/>
<stop offset="1" stop-color="#51C9A0" stop-opacity="0"/>
</linearGradient>
<linearGradient id="paint17_linear_5485_20823" x1="148.221" y1="179.039" x2="148.221" y2="54.4705" gradientUnits="userSpaceOnUse">
<stop stop-color="#51C9A0"/>
<stop offset="0.4928" stop-color="#51C9A0" stop-opacity="0"/>
</linearGradient>
<linearGradient id="paint18_linear_5485_20823" x1="134.856" y1="148.09" x2="134.856" y2="169.266" gradientUnits="userSpaceOnUse">
<stop stop-color="#51C9A0"/>
<stop offset="1" stop-color="#51C9A0" stop-opacity="0"/>
</linearGradient>
<linearGradient id="paint19_linear_5485_20823" x1="141.538" y1="140.464" x2="141.538" y2="161.64" gradientUnits="userSpaceOnUse">
<stop stop-color="#51C9A0"/>
<stop offset="1" stop-color="#51C9A0" stop-opacity="0"/>
</linearGradient>
<linearGradient id="paint20_linear_5485_20823" x1="148.221" y1="132.643" x2="148.221" y2="153.819" gradientUnits="userSpaceOnUse">
<stop stop-color="#51C9A0"/>
<stop offset="1" stop-color="#51C9A0" stop-opacity="0"/>
</linearGradient>
<linearGradient id="paint21_linear_5485_20823" x1="154.902" y1="140.464" x2="154.902" y2="161.64" gradientUnits="userSpaceOnUse">
<stop stop-color="#51C9A0"/>
<stop offset="1" stop-color="#51C9A0" stop-opacity="0"/>
</linearGradient>
<linearGradient id="paint22_linear_5485_20823" x1="161.584" y1="149.014" x2="161.584" y2="170.19" gradientUnits="userSpaceOnUse">
<stop stop-color="#51C9A0"/>
<stop offset="1" stop-color="#51C9A0" stop-opacity="0"/>
</linearGradient>
<linearGradient id="paint23_linear_5485_20823" x1="146.264" y1="152.91" x2="146.264" y2="174.087" gradientUnits="userSpaceOnUse">
<stop stop-color="#51C9A0"/>
<stop offset="1" stop-color="#51C9A0" stop-opacity="0"/>
</linearGradient>
<clipPath id="clip0_5485_20823">
<rect width="297" height="265" fill="white"/>
</clipPath>
</defs>
</svg>
