<svg width="344" height="378" viewBox="0 0 344 378" fill="none" xmlns="http://www.w3.org/2000/svg">
<path opacity="0.5" d="M0.547943 278.37L171.945 377.451L343.452 278.37L171.945 179.289L0.547943 278.37Z" fill="#400168" stroke="#BD8ACE" stroke-miterlimit="10" stroke-linecap="round" stroke-linejoin="round"/>
<path d="M232.876 255.768C198.466 275.628 142.466 275.518 107.835 255.548C90.6299 245.563 81.8628 232.506 81.7532 219.559C81.534 206.392 90.1915 193.225 107.397 183.24C141.808 163.38 197.808 163.489 232.438 183.459C267.068 203.429 267.287 235.907 232.876 255.768Z" fill="#400168" stroke="#BD8ACE" stroke-miterlimit="10" stroke-linecap="round" stroke-linejoin="round"/>
<path d="M258.52 219.559C258.739 232.726 250.191 245.892 232.876 255.877C198.465 275.737 142.465 275.628 107.835 255.658C90.6297 245.673 81.8626 232.616 81.753 219.668V276.286C81.8626 289.343 90.6297 302.291 107.835 312.276C142.465 332.355 198.465 332.465 232.876 312.495C250.191 302.51 258.739 289.343 258.52 276.176V219.559Z" fill="#341949" stroke="#BD8ACE" stroke-miterlimit="10" stroke-linecap="round" stroke-linejoin="round"/>
<path d="M218.301 234.7C191.89 249.952 148.932 249.842 122.301 234.481C109.041 226.8 102.356 216.815 102.247 206.83C102.137 196.736 108.712 186.641 121.973 178.96C148.384 163.709 191.342 163.818 217.973 179.18C244.493 194.541 244.712 219.449 218.301 234.7Z" fill="#400168" stroke="#BD8ACE" stroke-miterlimit="10" stroke-linecap="round" stroke-linejoin="round"/>
<path d="M237.918 206.83C238.027 216.925 231.452 227.019 218.192 234.7C191.781 249.952 148.822 249.842 122.192 234.481C108.932 226.8 102.247 216.815 102.137 206.83V217.364C102.247 227.349 108.932 237.333 122.192 245.014C148.822 260.376 191.781 260.485 218.192 245.234C231.452 237.553 238.027 227.458 237.918 217.364V206.83Z" fill="#341949" stroke="#BD8ACE" stroke-miterlimit="10" stroke-linecap="round" stroke-linejoin="round"/>
<path d="M238.576 8.00977H102.795V207.708C102.905 217.693 109.59 227.678 122.85 235.358C149.48 250.72 192.439 250.83 218.85 235.578C232.11 227.897 238.685 217.803 238.576 207.708V8.00977Z" fill="url(#paint0_linear_5485_20909)"/>
<path d="M179.181 104.729C177.664 104.729 176.286 107.628 176.148 111.494C176.561 111.77 177.113 112.046 177.526 112.46C178.078 112.874 178.492 113.288 178.905 113.702C179.319 113.288 179.87 112.874 180.422 112.46C180.973 112.046 181.663 111.77 182.214 111.494C181.938 107.628 180.698 104.729 179.181 104.729ZM185.385 111.632C184.42 111.632 181.525 112.736 179.595 114.531C180.422 115.497 180.973 116.601 181.387 117.706C181.801 119.086 181.938 120.467 181.938 121.709C181.938 121.985 181.938 122.261 181.938 122.537C182.766 121.295 183.317 119.776 183.317 117.982C183.317 115.911 184.42 114.117 185.11 113.012C185.799 112.184 186.075 111.632 185.385 111.632ZM172.701 111.494C174.217 111.494 179.181 114.531 180.146 118.12C181.111 121.295 180.835 125.022 178.905 125.022C177.389 125.022 174.493 121.847 174.493 117.982C174.493 115.911 173.528 114.117 172.839 112.874C172.287 112.046 172.011 111.494 172.701 111.494Z" fill="#51C9A0"/>
<g opacity="0.8">
<path d="M178.494 136.894C166.636 136.894 157.123 127.231 157.123 115.498C157.123 103.626 166.774 94.1006 178.494 94.1006C190.351 94.1006 199.864 103.764 199.864 115.498C199.864 127.231 190.351 136.894 178.494 136.894ZM178.494 95.6191C167.601 95.6191 158.64 104.592 158.64 115.498C158.64 126.403 167.601 135.376 178.494 135.376C189.386 135.376 198.347 126.403 198.347 115.498C198.347 104.592 189.524 95.6191 178.494 95.6191Z" fill="#51C9A0"/>
</g>
<g opacity="0.4">
<path d="M178.493 141.036C164.43 141.036 152.986 129.578 152.986 115.497C152.986 101.417 164.43 89.959 178.493 89.959C192.557 89.959 204 101.417 204 115.497C204 129.578 192.557 141.036 178.493 141.036ZM178.493 91.4775C165.257 91.4775 154.503 102.245 154.503 115.497C154.503 128.75 165.257 139.517 178.493 139.517C191.729 139.517 202.483 128.75 202.483 115.497C202.483 102.245 191.729 91.4775 178.493 91.4775Z" fill="#51C9A0"/>
</g>
<path d="M183.045 111.218C184.01 110.804 184.975 110.528 185.526 110.528L188.835 105.006H182.769L181.942 106.248C182.631 107.767 182.907 109.561 183.045 111.218Z" fill="#51C9A0"/>
<path d="M172.703 110.528C173.255 110.528 174.22 110.804 175.185 111.356C175.185 109.975 175.461 108.595 175.874 107.353L174.496 105.006H168.429L171.876 110.666C172.014 110.666 172.29 110.528 172.703 110.528Z" fill="#51C9A0"/>
<path d="M184.148 119.639C183.872 120.881 183.458 122.123 182.631 123.228L181.39 125.022L182.769 127.369H188.973L184.148 119.639Z" fill="#51C9A0"/>
<path d="M175.323 123.504C174.772 122.676 173.669 120.881 173.531 118.534L168.154 127.231H174.358L176.151 124.194C175.875 124.194 175.599 123.78 175.323 123.504Z" fill="#51C9A0"/>
<g opacity="0.8">
<path d="M130.137 167.038C121.962 167.038 115.3 160.368 115.3 152.182C115.3 143.996 121.962 137.326 130.137 137.326C138.313 137.326 144.975 143.996 144.975 152.182C144.975 160.368 138.313 167.038 130.137 167.038ZM130.137 138.236C122.567 138.236 116.36 144.451 116.36 152.03C116.36 159.61 122.567 165.825 130.137 165.825C137.708 165.825 143.915 159.61 143.915 152.03C143.915 144.451 137.708 138.236 130.137 138.236Z" fill="#51C9A0"/>
</g>
<g opacity="0.4">
<path d="M130.138 169.918C120.297 169.918 112.424 161.884 112.424 152.182C112.424 142.481 120.448 134.446 130.138 134.446C139.979 134.446 147.852 142.481 147.852 152.182C147.852 161.884 139.828 169.918 130.138 169.918ZM130.138 135.356C120.903 135.356 113.484 142.784 113.484 152.031C113.484 161.278 120.903 168.706 130.138 168.706C139.374 168.706 146.792 161.278 146.792 152.031C146.792 142.935 139.222 135.356 130.138 135.356Z" fill="#51C9A0"/>
</g>
<path d="M129.384 156.124V154.153C128.778 154.153 127.718 153.85 126.659 153.092C125.296 152.031 124.842 150.212 124.842 150.212C124.842 150.212 126.81 149.909 128.173 150.97C128.627 151.273 129.081 151.728 129.384 152.031V150.667C129.081 150.061 128.778 149.151 128.778 147.938C128.778 146.119 130.141 144.755 130.141 144.755C130.141 144.755 131.503 146.119 131.503 147.938C131.503 148.999 131.201 149.909 130.898 150.515V152.031C131.201 151.728 131.655 151.273 132.109 150.97C133.623 149.909 135.44 150.364 135.44 150.364C135.44 150.364 134.986 152.334 133.623 153.244C132.563 154.002 131.503 154.305 130.898 154.153V156.276C131.201 155.972 131.655 155.518 132.109 155.215C133.623 154.153 135.44 154.608 135.44 154.608C135.44 154.608 134.986 156.579 133.623 157.488C132.563 158.246 131.352 158.55 130.746 158.398H129.535C128.93 158.55 127.718 158.095 126.659 157.337C125.296 156.276 124.842 154.457 124.842 154.457C124.842 154.457 126.81 154.153 128.173 155.215C128.627 155.518 129.081 155.821 129.384 156.124Z" fill="#51C9A0"/>
<path d="M128.473 150.212C128.17 149.606 128.019 148.696 128.019 147.786C128.019 147.332 128.019 147.029 128.17 146.725L127.11 144.906H123.174L125.899 149.454C126.505 149.454 127.565 149.606 128.473 150.212Z" fill="#51C9A0"/>
<path d="M135.133 156.73C134.831 157.185 134.528 157.64 133.922 157.943C133.317 158.398 132.711 158.701 132.105 158.853L132.862 160.217H137.102L135.133 156.73Z" fill="#51C9A0"/>
<path d="M132.257 147.938C132.257 148.847 132.106 149.757 131.803 150.363C132.711 149.757 133.62 149.605 134.377 149.605L137.102 145.058H133.014L131.954 146.725C132.106 147.028 132.257 147.483 132.257 147.938Z" fill="#51C9A0"/>
<path d="M126.202 157.943C125.747 157.64 125.445 157.185 125.142 156.882L123.022 160.368H127.262L128.17 159.004C127.413 158.701 126.807 158.246 126.202 157.943Z" fill="#51C9A0"/>
<path opacity="0.1" d="M123.726 41.3662H121.644V128.597H123.726V41.3662Z" fill="url(#paint1_linear_5485_20909)"/>
<path d="M154.048 136.305H151.966V223.535H154.048V136.305Z" fill="url(#paint2_linear_5485_20909)"/>
<path opacity="0.3" d="M216 43.5605H213.918V130.791H216V43.5605Z" fill="url(#paint3_linear_5485_20909)"/>
<path opacity="0.1" d="M180.493 0H178.411V87.2308H180.493V0Z" fill="url(#paint4_linear_5485_20909)"/>
<path opacity="0.4" d="M140.384 79.8796C140.868 79.8796 141.26 79.4866 141.26 79.0018C141.26 78.517 140.868 78.124 140.384 78.124C139.899 78.124 139.507 78.517 139.507 79.0018C139.507 79.4866 139.899 79.8796 140.384 79.8796Z" fill="#51C9A0"/>
<path opacity="0.4" d="M198.723 91.6083C198.86 91.1434 198.595 90.6552 198.131 90.5177C197.667 90.3802 197.179 90.6456 197.042 91.1104C196.904 91.5753 197.169 92.0636 197.634 92.2011C198.098 92.3386 198.586 92.0732 198.723 91.6083Z" fill="#51C9A0"/>
<path opacity="0.7" d="M93.3108 125.632C93.3967 125.341 93.231 125.036 92.9408 124.95C92.6506 124.864 92.3458 125.03 92.26 125.321C92.1742 125.611 92.3398 125.916 92.63 126.002C92.9202 126.088 93.225 125.922 93.3108 125.632Z" fill="#51C9A0"/>
<path opacity="0.7" d="M155.911 148.766C155.996 148.475 155.831 148.17 155.541 148.084C155.25 147.998 154.946 148.164 154.86 148.454C154.774 148.745 154.94 149.05 155.23 149.136C155.52 149.222 155.825 149.056 155.911 148.766Z" fill="#51C9A0"/>
<path opacity="0.7" d="M199.737 130.959C199.823 130.668 199.658 130.363 199.367 130.277C199.077 130.191 198.772 130.357 198.687 130.648C198.601 130.938 198.766 131.243 199.057 131.329C199.347 131.415 199.652 131.249 199.737 130.959Z" fill="#51C9A0"/>
<path opacity="0.7" d="M134.638 121.15C134.672 121.034 134.606 120.912 134.49 120.878C134.374 120.843 134.252 120.91 134.218 121.026C134.183 121.142 134.249 121.264 134.366 121.299C134.482 121.333 134.604 121.267 134.638 121.15Z" fill="#51C9A0"/>
<path opacity="0.5" d="M308.822 281.992C304.767 284.296 298.082 284.296 294.027 281.992C291.945 280.785 290.959 279.249 290.959 277.712C290.959 276.176 291.945 274.64 294.027 273.433C298.082 271.129 304.767 271.129 308.822 273.433C312.877 275.737 312.877 279.578 308.822 281.992Z" fill="#400168" stroke="#BD8ACE" stroke-miterlimit="10" stroke-linecap="round" stroke-linejoin="round"/>
<path d="M311.89 214.072H290.959V277.822C290.959 279.358 292.055 280.894 294.027 282.101C298.082 284.515 304.767 284.515 308.822 282.101C310.904 280.894 311.89 279.358 311.89 277.822V214.072Z" fill="url(#paint5_linear_5485_20909)"/>
<g opacity="0.8">
<path d="M190.577 209.342C177.495 209.342 166.784 198.617 166.784 185.519C166.784 172.421 177.495 161.696 190.577 161.696C203.659 161.696 214.371 172.421 214.371 185.519C214.371 198.705 203.659 209.342 190.577 209.342ZM190.577 163.454C178.373 163.454 168.54 173.388 168.54 185.519C168.54 197.65 178.461 207.583 190.577 207.583C202.693 207.583 212.615 197.65 212.615 185.519C212.615 173.388 202.693 163.454 190.577 163.454Z" fill="#51C9A0"/>
</g>
<g opacity="0.4">
<path d="M190.578 214C174.95 214 162.219 201.254 162.219 185.607C162.219 169.959 174.95 157.213 190.578 157.213C206.206 157.213 218.936 169.959 218.936 185.607C218.936 201.254 206.206 214 190.578 214ZM190.578 158.883C175.915 158.883 163.887 170.838 163.887 185.607C163.887 200.287 175.828 212.33 190.578 212.33C205.328 212.33 217.268 200.375 217.268 185.607C217.18 170.838 205.24 158.883 190.578 158.883Z" fill="#51C9A0"/>
</g>
<path d="M174.511 189.738V181.387H176.53V188.156H180.042V189.826H174.511V189.738ZM189.349 181.387V189.738H187.593L184.256 184.903H184.169V189.738H182.237V181.387H183.993L187.242 186.222H187.329V181.387H189.349ZM194.792 189.738H191.719V181.387H194.792C195.67 181.387 196.373 181.563 196.987 181.914C197.602 182.266 198.041 182.705 198.392 183.321C198.743 183.936 198.919 184.727 198.919 185.518C198.919 186.397 198.743 187.101 198.392 187.804C198.041 188.419 197.602 188.947 196.987 189.21C196.373 189.562 195.67 189.738 194.792 189.738ZM193.739 188.068H194.704C195.143 188.068 195.582 187.98 195.934 187.804C196.285 187.628 196.548 187.364 196.636 187.013C196.812 186.661 196.899 186.134 196.899 185.606C196.899 184.991 196.812 184.551 196.636 184.2C196.46 183.848 196.197 183.584 195.846 183.409C195.495 183.233 195.143 183.145 194.617 183.145H193.651V188.068H193.739ZM202.87 181.387L204.362 184.024H204.45L206.03 181.387H208.313L205.767 185.606L208.401 189.826H206.118L204.538 187.189H204.45L202.87 189.826H200.587L203.221 185.606L200.675 181.387H202.87Z" fill="#51C9A0"/>
<defs>
<linearGradient id="paint0_linear_5485_20909" x1="170.704" y1="246.938" x2="170.704" y2="8.02369" gradientUnits="userSpaceOnUse">
<stop stop-color="#51C9A0"/>
<stop offset="0.6807" stop-color="#51C9A0" stop-opacity="0"/>
</linearGradient>
<linearGradient id="paint1_linear_5485_20909" x1="122.683" y1="128.608" x2="122.683" y2="41.4066" gradientUnits="userSpaceOnUse">
<stop stop-color="#51C9A0"/>
<stop offset="1" stop-color="#51C9A0" stop-opacity="0"/>
</linearGradient>
<linearGradient id="paint2_linear_5485_20909" x1="152.936" y1="223.485" x2="152.936" y2="136.283" gradientUnits="userSpaceOnUse">
<stop stop-color="#51C9A0"/>
<stop offset="1" stop-color="#51C9A0" stop-opacity="0"/>
</linearGradient>
<linearGradient id="paint3_linear_5485_20909" x1="214.907" y1="130.803" x2="214.907" y2="43.6009" gradientUnits="userSpaceOnUse">
<stop stop-color="#51C9A0"/>
<stop offset="1" stop-color="#51C9A0" stop-opacity="0"/>
</linearGradient>
<linearGradient id="paint4_linear_5485_20909" x1="179.484" y1="87.2018" x2="179.484" y2="0" gradientUnits="userSpaceOnUse">
<stop stop-color="#51C9A0"/>
<stop offset="1" stop-color="#51C9A0" stop-opacity="0"/>
</linearGradient>
<linearGradient id="paint5_linear_5485_20909" x1="301.433" y1="283.849" x2="301.433" y2="214.022" gradientUnits="userSpaceOnUse">
<stop stop-color="#51C9A0"/>
<stop offset="0.6807" stop-color="#51C9A0" stop-opacity="0"/>
</linearGradient>
</defs>
</svg>
